<svg data-name="Layer 1" xmlns="http://www.w3.org/2000/svg" viewBox="0 0 1056 852"><ellipse cx="502.4" cy="821.9" rx="250.3" ry="8.9" fill="#3f3d56"/><circle cx="385.7" cy="332.9" r="89.6" fill="#ff6584"/><ellipse cx="280.2" cy="791.5" rx="75.5" ry="7" fill="#3f3d56"/><path d="M418 823s62-168 28-270-62-99-62-99-47-12-104 23-74 46-107 31-39-37-119-34c0 0 42-23 84-3s70 33 113 0 101-73 158-49c0 0-42-40-56-40s-77-7-98-29c0 0-30-20-83 31s-40 51-88 47-84-27-84-27 55 23 89 11 63-54 93-68 47-34 87-13c0 0-17-69-49-63s15-16 15-16-8-118-25-126-7-29-38-33c0 0 38-4 46 22l57 170s30 61 64 46-13-95-13-95l-58-27s44-2 70 23 28 106 28 106 67 9 83 45c0 0 10-32-10-51-5-5-10-13-15-23-19-38-26-81-20-123 3-20 5-40 2-45-8-11-38-75-41-92s3-52 3-52 1 43 10 57 37 81 37 81 0 85 23 127 66 88 63 119v18s48-46 45-61-7-52-38-74-50-56-28-106 21-58 21-58l-14 62s-8 55 14 74 52 55 52 55l-6-116 21 46s45-58 98-77 86-87 86-87l45-35-37 44s-11 52-75 89-104 92-107 126l-4 63s118-4 145-56 29-156 55-173 73-38 73-38l-53 44s-12 37-9 62-18 50-18 50l-15 45-17 39s69 1 105 42 126 53 126 53l-50 14s-49-16-94-46-41-56-98-26-135 54-135 54 45-21 126 30-40-9-76 10-53-4-68 44-41 180-10 254l30 74z" fill="#3f3d56"/><path d="M720 291c-21 42-104 53-134 55l-2 18s119-4 146-56 29-156 54-173l9-5 2-6 54-44s-49 21-74 38-28 121-55 173zM582 210l-3 31s45-58 98-77l9-6c64-37 75-89 75-89l37-44-45 35s-33 68-86 87c-36 13-68 44-85 63zM512 401v18s48-46 45-61c-2-12-5-36-20-56 7 15 9 30 10 39 3 11-21 37-35 51a37 37 0 010 9zM448 280l1 2c12 23 31 47 45 70-12-22-31-48-46-72zM487 246c-7-16-8-35 0-57a174 174 0 011-24l13-54-20 50c-16 36-10 64 6 85zM841 362c-25-28-66-38-88-41l-7 16s69 1 105 42c20 23 57 37 85 45l31-9s-89-12-126-53zM350 351c34-14-13-95-13-95l-1-1c11 25 28 69 4 79-22 10-43-14-55-31l1 2s30 61 64 46zM460 403s10-31-9-50c5 16-1 33-1 33-12-28-55-40-74-44l1 16s67 9 83 45zM501 111l1-8zM100 432c34-11 63-53 92-68s48-34 88-13c0 0-7-29-21-47a187 187 0 0111 30c-40-21-58-1-87 13-30 14-59 57-93 68S1 404 1 404s37 23 85 27l14 1zM435 823c14-46 50-170 22-253-12-36-23-59-33-74 7 14 15 32 23 57 35 102-28 270-28 270zM121 480a82 82 0 0128 9c33 16 58 27 87 14l24-13 2-1c42-33 101-74 158-49 0 0-12-12-25-22-52-13-104 24-143 53-43 33-71 21-113 0s-84 3-84 3c31-1 51 2 66 6zM202 122a21 21 0 004 4 24 24 0 00-4-4zM349 252a39 39 0 014 4c-4-8-8-16-14-21-26-25-70-23-70-23l55 25a78 78 0 0125 15zM407 144c3 5 1 25-2 45-6 42 1 85 20 123a143 143 0 009 15c-19-38-25-80-19-121 3-20 5-40 2-45-8-11-38-75-41-92a117 117 0 010-19c-6-18-7-50-7-50s-5 35-2 52 33 81 40 92zM482 33a23 23 0 00-1-5l1 5zM198 114c8 0 16 3 22 8l-1-4c-7-26-46-22-46-22 18 3 22 10 25 18z" opacity=".1"/><path d="M398 788c6 21 25 34 25 34s11-21 5-42-25-34-25-34-11 21-5 42z" fill="#3f3d56"/><path d="M407 784c15 15 17 38 17 38s-23-1-39-16-18-39-18-39 24 1 40 17zM354 210c-1 22-17 38-17 38s-15-18-13-40 17-39 17-39 15 19 13 41zM182 71c18 12 25 35 25 35s-23 3-42-8-25-35-25-35 23-3 42 8zM140 338c19 12 25 34 25 34s-23 4-41-8-26-34-26-34 24-4 42 8zM239 440c18 12 25 35 25 35s-23 3-42-8-25-35-25-35 23-3 42 8zM517 110c-5 21-25 35-25 35s-10-21-5-43 25-34 25-34 11 21 5 42zM694 127c-7 21-27 33-27 33s-9-22-3-42 27-34 27-34 9 22 3 43zM884 360c-11 18-34 25-34 25s-3-24 8-42 35-25 35-25 3 23-9 42z" fill="#6c63ff"/><path d="M585 510s-2 7 2 10 5 14 5 14l-8 22-20 3-8-14v-22s3-11 2-14 27 1 27 1z" fill="#ffb9b9"/><path d="M585 510s-2 7 2 10 5 14 5 14l-8 22-20 3-8-14v-22s3-11 2-14 27 1 27 1z" opacity=".2"/><path d="M605 631l17 3s1 18 0 23-3 9-1 11-6 34-5 35 2 8 1 12-3 3-1 6 2 5 1 7-8 65-10 65-19 2-19 0 6-10 4-13 1-46 1-48 4-5 2-6-4-3-3-5 2-2 1-4-2-40-6-42c0 0-6 28-4 35s-1 10-1 10l9 8-12 23-12-15s0-4-3-4-4-2-4-4l-4-14s-13-40-7-60 9-20 9-20z" fill="#2f2e41"/><path fill="#ffb9b9" d="M616 763l7 7-3 21h-6l-9-19 11-9z"/><path d="M620 777s-2 6-4 4-3-3-6-3-5 1-5 2l9 15a18 18 0 010 16c-4 8 10 12 12 3s4-19 3-23 3-23 3-23l-13-5s2 11 1 14zM603 791l2 8s0 7 3 11 5 12-5 13-15-3-15-3 2-6 0-7 0-6 0-6l2-16z" fill="#2f2e41"/><path d="M586 727h5l29 38s-5 12-13 13l-7-4c-6-3-21-23-21-23l-2-11z" fill="#2f2e41"/><circle cx="571.6" cy="498.1" r="20.4" fill="#ffb9b9"/><path d="M597 524l-7-2s-1 22-13 22-24-3-24-10-11 12-11 12l9 64 7 35s33 1 44-3 14-13 14-13l-5-56-9-44z" fill="#6c63ff"/><path d="M586 519s2-3 6 0 27 8 27 10v24s1 4-1 6-6 12-4 17 12 56 11 62-7 13-7 13-28-58-28-75v-37z" fill="#575a89"/><path d="M614 529h5s22 42 22 50-14 54-15 55-5-7-5-7l-3-26s6-15 4-17l-11-23zM557 519l-8 7c-1 2-21 12-21 15s14 24 14 24l7 38 2 46s26 8 26 3 1-68-3-82l-17-51z" fill="#575a89"/><path d="M561 651s22 29 11 28-19-25-19-25z" fill="#ffb9b9"/><path d="M535 539l-7 2s-7 56-3 64l24 55c0-2 18-5 18-7l-6-12-3-9c0-3-7-17-7-17l-2-12-7-46z" fill="#575a89"/><path d="M592 482a5 5 0 00-3-3 11 11 0 000-3c-1-4-4-4-7-5l-2-3a9 9 0 00-4-3 14 14 0 00-6-2c-4-1-8 3-12 5l-6 1-4 3v3c0 2-2 3-3 4-2 3-2 8 0 11a15 15 0 001 2 12 12 0 002 5l8 8a18 18 0 010-4 2 2 0 010-1l2-1a5 5 0 002-4v-6a3 3 0 011-2 4 4 0 012 0c3 0 7 0 10-2a14 14 0 012-1c3-1 5 1 7 3l3 6c1 2 4 4 6 4a1 1 0 001-1v-9a13 13 0 000-5z" fill="#2f2e41"/><ellipse cx="930" cy="843.1" rx="125.5" ry="8.9" fill="#3f3d56"/><path d="M886 822s-11 9-16 9-17-1-12 5 23 10 31 10 25 2 24-2-2-19-7-20l-20-2zM948 813s-8 12-14 13-16 4-10 8 25 3 33 2 25-6 23-9-8-18-12-18l-20 4z" fill="#575a89"/><path d="M880 648s-7 50-6 59l3 23v17l8 61v7c1 3 3 0 0 5s-1 6-1 6 23 2 24 0v-6c0-3 1-3 2-4s4 1 2-2-6-6-4-8-1-14-1-14l-2-45c-1-17 5-34 5-34a65 65 0 0015 38c15 17 22 50 22 50s3 5 2 9-7 2-2 5 23-1 24-3-2-4-1-8 6-4 2-6-5-2-5-4-10-51-26-65l-1-52s14-36-1-39-59 10-59 10z" fill="#2f2e41"/><path d="M890 514s10 24 7 27 28-11 28-11l-10-26c0-2-25 10-25 10z" fill="#a0616a"/><circle cx="897.1" cy="499.4" r="20.9" fill="#a0616a"/><path d="M925 521s-15-2-22 7l-8 11s-18 28-15 42a41 41 0 013 4v39c-1 5-3 7-1 14s-9 20 2 22 21 0 25-5 1-8 13-8a30 30 0 0021-9s-7-6-4-8 0-3-2-6-1-5 1-5 1-1-1-4 20-52 8-66l-19-22s2-8-1-6z" fill="#6c63ff"/><path d="M893 574v25l-18 60s-12 31 0 31 11-30 11-30l25-45s11-35 10-38-28-3-28-3z" fill="#a0616a"/><path d="M902 537s-16 7-12 25 0 18 0 18 23-3 31 3l1-7s7-39-20-39z" fill="#6c63ff"/><path d="M890 484a8 8 0 01-8-1 6 6 0 01-2-8c1-2 4-3 6-4a52 52 0 0115-4l8 1 3 2c2 2 4 2 6 2a16 16 0 0110 10 20 20 0 011 4 25 25 0 01-1 13c-2 6-7 12-8 19-3-3-4-7-6-10a12 12 0 00-7-4 4 4 0 01-3 0 3 3 0 010-2l-2-10-3-6a8 8 0 00-4-1 54 54 0 00-8-1" fill="#2f2e41"/></svg>